<?xml version="1.0" encoding="UTF-8"?>
<svg id="Ebene_1" data-name="Ebene 1" xmlns="http://www.w3.org/2000/svg" version="1.1" viewBox="0 0 678.5 503.7">
  <defs>
    <style>
      .cls-1 {
        fill: #cf0;
        stroke-width: 0px;
      }

      .cls-2 {
        isolation: isolate;
      }
    </style>
  </defs>
  <path class="cls-1" d="M232.2,346.9c0-3-.3-7.4-1-11-6,3-9.4,3.9-14,5,2.1,18.3,6.9,43.3-8.5,57.9,18.9-8.7,23.5-28.9,23.5-51.9Z"/>
  <path class="cls-1" d="M137.9,319.5c-46.2,17.1-111.7,12-117.2,76.9,16-48.1,108.9-32.4,130.6-66.5-4.8-3-9.3-6.5-13.3-10.5h0Z"/>
  <path class="cls-1" d="M203.2,342.9c-9.1,1-19.5-.7-28.2-2.9-25.7,58.3-128.5,39.1-156.2,79.6C5.2,441.9.5,480.1,0,503.7c.6-1.9.8-3.9,1.4-5.8,11.3-28.7,46.1-36.3,72.3-46,60.9-22.9,143.2-20.9,129.5-109.1h0Z"/>
  <path class="cls-1" d="M115.4,274.7c-49.7-2.8-93.8,17-96.2,70.8,6.7-17.2,24.5-27.7,40.4-35.5,19.5-8.9,41.7-6.8,62-12.6-3.5-7-4.9-14.6-6.2-22.6h0Z"/>
  <g class="cls-2">
    <g class="cls-2">
      <g class="cls-2">
        <path class="cls-1" d="M107.1,55l-5.7,32.5h30.8l-4.4,25h-30.8l-10.2,57.5h-25L86.5,30h55.8l-4.4,25h-30.8Z"/>
      </g>
    </g>
    <g class="cls-2">
      <g class="cls-2">
        <path class="cls-1" d="M205.6,137c-2.2,12.4-8.4,19.9-13.2,24-4.9,4.1-13.2,9-25.7,9s-19.1-4.9-22.4-9c-3.4-4.1-7-11.6-4.8-24l18.9-107h25l-18.9,107c-.5,3-.3,5.3.6,6.3.8,1.1,3,1.7,6,1.7s5.5-.6,6.7-1.7c1.3-1,2.3-3.3,2.8-6.3l18.9-107h25l-18.9,107Z"/>
      </g>
    </g>
    <g class="cls-2">
      <g class="cls-2">
        <path class="cls-1" d="M263.1,55l-5.7,32.5h30.8l-4.4,25h-30.8l-5.8,32.5h30.8l-4.4,25h-55.8l24.7-140h55.8l-4.4,25h-30.8Z"/>
      </g>
    </g>
    <g class="cls-2">
      <g class="cls-2">
        <path class="cls-1" d="M369.9,39c3.3,4.1,6.9,11.6,4.7,24l-2.2,12.5h-25l2.2-12.5c.6-3,.4-5.3-.6-6.3-.8-1.1-3.1-1.7-6.1-1.7s-5.4.6-6.6,1.7c-1.2,1-2.2,3.3-2.8,6.3l-13,74c-.5,3-.3,5.3.6,6.3.8,1.1,3,1.7,6,1.7s5.5-.6,6.7-1.7c1.3-1,2.3-3.3,2.8-6.3l3.6-20.4h-6.2l4.4-25h31.2l-8,45.4c-2.2,12.4-8.4,19.9-13.2,24-4.9,4.1-13.2,9-25.7,9s-19.1-4.9-22.4-9c-3.4-4.1-7-11.6-4.8-24l13-74c2.2-12.4,8.4-19.9,13.3-24,4.8-4.1,13.2-9,25.6-9s19.1,4.9,22.5,9Z"/>
      </g>
    </g>
    <g class="cls-2">
      <g class="cls-2">
        <path class="cls-1" d="M451,39c3.3,4.1,6.9,11.6,4.7,24l-13,74c-2.2,12.4-8.4,19.9-13.2,24-4.9,4.1-13.2,9-25.7,9s-19.1-4.9-22.4-9c-3.4-4.1-7-11.6-4.8-24l13-74c2.2-12.4,8.4-19.9,13.3-24,4.8-4.1,13.2-9,25.6-9s19.1,4.9,22.5,9ZM417.4,56.7c-1.2,1-2.2,3.3-2.8,6.3l-13,74c-.5,3-.3,5.3.6,6.3.8,1.1,3,1.7,6,1.7s5.5-.6,6.7-1.7c1.3-1,2.3-3.3,2.8-6.3l13-74c.6-3,.4-5.3-.6-6.3-.8-1.1-3.1-1.7-6.1-1.7s-5.4.6-6.6,1.7Z"/>
      </g>
    </g>
  </g>
  <g class="cls-2">
    <g class="cls-2">
      <g class="cls-2">
        <path class="cls-1" d="M344,188.9c12.4,0,19.1,4.9,22.4,9,3.4,4.1,7,11.6,4.8,24l-4.4,24.7c-2.1,12.4-8.4,19.9-13.2,24-4.8,4.1-13.2,9-25.6,9h-10.1l-8.7,49.3h-25l24.7-140h35.1ZM322.3,254.6h10.1c3,0,5.4-.6,6.7-1.6,1.2-1.1,2.2-3.4,2.7-6.4l4.4-24.7c.5-3,.3-5.3-.5-6.3-.9-1.1-3.1-1.7-6.1-1.7h-10.1l-7.2,40.7Z"/>
      </g>
    </g>
    <g class="cls-2">
      <g class="cls-2">
        <path class="cls-1" d="M406,328.9l-.4-12.3h-25.9l-4.8,12.3h-25.6l54.7-140h22.3l5.3,140h-25.6ZM404.6,291.6l-1.4-35.3-13.7,35.3h15.1Z"/>
      </g>
    </g>
    <g class="cls-2">
      <g class="cls-2">
        <path class="cls-1" d="M503.3,188.9c12.4,0,19.1,4.9,22.4,9,3.4,4.1,7,11.6,4.8,24l-13.1,74c-2.1,12.4-8.4,19.9-13.2,24-4.8,4.1-13.2,9-25.6,9h-35.1l24.7-140h35.1ZM472.9,303.9h10.1c3,0,5.4-.6,6.7-1.7,1.2-1,2.2-3.3,2.7-6.3l13.1-74c.5-3,.3-5.3-.5-6.3-.9-1.1-3.1-1.7-6.1-1.7h-10.1l-15.9,90Z"/>
      </g>
    </g>
    <g class="cls-2">
      <g class="cls-2">
        <path class="cls-1" d="M572.9,213.9l-5.7,32.5h30.8l-4.4,25h-30.8l-5.8,32.5h30.8l-4.4,25h-55.8l24.7-140h55.8l-4.4,25h-30.8Z"/>
        <path class="cls-1" d="M661.6,303.9l-4.4,25h-55.8l24.7-140h25l-20.3,115h30.8Z"/>
      </g>
    </g>
  </g>
  <g id="Ball">
    <path class="cls-1" d="M199.9,191.4c2.5.9,1.7,2.8,1.4,4.6-6.8,33.5-37.1,57.4-71.6,56.5-5.4-.1-5.9-.9-4.8-6.4,7.4-33.7,40-58.4,75-54.7h0Z"/>
    <path class="cls-1" d="M124.3,275.2c-.4-2-.8-5.2-.8-7.2,0-4.7,1.4-4.4,8.2-4.4,38.6,0,71.5-26.3,80-64.2,1.3-5.8,1.6-5.9,7.3-3.9,25.9,9.4,45.3,35.8,45.6,61.3,0,1.5-1.2,2.7-2.6,2.7-40.8.6-76.3,23.1-85.6,65.1-1.1,4.5-2.6,5.7-7.1,3.9-24.4-9.6-39.6-28.2-45.1-53.2h0Z"/>
    <path class="cls-1" d="M188.6,332.5c-2.5-.8-2-2.7-1.7-4.5,5.8-33.3,38.8-58.8,73-56.7,4.5.3,4.2,2.6,3.6,5.6-6.4,34-40.5,58.4-74.9,55.5h0Z"/>
  </g>
</svg>